<svg xmlns="http://www.w3.org/2000/svg" xmlns:xlink="http://www.w3.org/1999/xlink" width="165" height="56" viewBox="0 0 165 56">
    <defs>
        <path id="a" d="M0 56h164.931V0H0z"/>
    </defs>
    <g fill="none" fill-rule="evenodd">
        <path fill="#FFFFFE" d="M164.842 17.044l.089.082v.488l-.078.07c-.734.018-1.188.056-1.365.11-.177.052-.303.14-.375.263-.075.127-.116.365-.126.727-.01.358-.028 1.374-.055 3.046v4.608c0 .665.01 1.419.03 2.258.022.839.063 1.326.127 1.463a.58.58 0 0 0 .345.3c.163.065.637.106 1.419.127l.078.068v.49l-.09.079a54.4 54.4 0 0 0-2.837-.09c-.546 0-1.476.032-2.79.09l-.088-.078v-.481l.078-.078c.734-.021 1.19-.06 1.365-.11.177-.055.303-.143.375-.265.075-.124.116-.37.129-.734.014-.37.03-1.382.05-3.04v-7.333l-3.447 7.214a91.696 91.696 0 0 0-2.268 5.096h-.39a76.024 76.024 0 0 0-.92-2.06l-4.775-9.922v6.985c0 .655.007 1.406.024 2.254.017.85.058 1.34.126 1.474a.638.638 0 0 0 .348.3c.167.065.64.106 1.418.12l.083.078v.48l-.088.089-.642-.027a33.612 33.612 0 0 0-1.698-.051c-.216 0-1.01.028-2.388.078l-.082-.078v-.48l.082-.09c.733-.013 1.184-.047 1.357-.1a.623.623 0 0 0 .375-.268c.079-.126.12-.364.13-.71.01-.347.028-1.37.044-3.07V21.84c0-.604-.007-1.344-.023-2.214-.018-.866-.06-1.371-.12-1.507a.6.6 0 0 0-.344-.304c-.167-.068-.642-.11-1.42-.12l-.081-.081v-.478l.092-.092a25.84 25.84 0 0 0 1.859.05c.73 0 1.37-.015 1.917-.05a76.944 76.944 0 0 0 1.61 3.506l3.786 7.777 3.418-7.125c.926-1.927 1.548-3.312 1.869-4.158.64.035 1.268.05 1.889.05.559 0 1.217-.015 1.978-.05zm-34.415.04l.079-.071c1.654.055 2.606.082 2.857.082.229 0 1.184-.027 2.87-.082l.082.072v.498l-.082.072c-.461.014-.816.034-1.065.057-.25.028-.43.079-.546.15-.112.076-.187.246-.224.516a9.17 9.17 0 0 0-.055 1.125l-.021 2.299v3.176c0 1.047.024 1.814.069 2.305.04.488.136.9.279 1.239.144.334.36.623.65.869.294.242.714.44 1.263.594.546.153 1.163.228 1.86.228a6.67 6.67 0 0 0 2.052-.303c.635-.201 1.119-.498 1.453-.884.332-.385.55-.894.656-1.524.102-.631.153-1.504.153-2.623v-3.077c0-.522-.007-1.235-.023-2.145-.018-.907-.06-1.433-.121-1.57a.634.634 0 0 0-.35-.31c-.171-.068-.642-.108-1.412-.122l-.082-.082v-.467l.082-.093c.985.055 1.773.082 2.367.082.505 0 1.292-.027 2.356-.082l.093.082v.478l-.093.082c-.624.014-1.033.037-1.224.075-.188.038-.32.092-.4.164a.714.714 0 0 0-.17.34c-.034.154-.061.594-.075 1.317l-.027 2.25v3.037c0 1.214-.048 2.169-.14 2.868-.095.7-.303 1.276-.624 1.723a4.677 4.677 0 0 1-1.15 1.132c-.443.3-1.013.536-1.705.699a9.555 9.555 0 0 1-2.158.242c-.932 0-1.757-.102-2.474-.306-.716-.208-1.278-.482-1.691-.822-.414-.338-.71-.696-.89-1.075-.182-.376-.297-.82-.352-1.327-.051-.511-.08-1.29-.08-2.333v-3.837l-.02-1.951c-.006-.757-.023-1.248-.054-1.466-.03-.222-.078-.37-.14-.44-.064-.075-.183-.133-.364-.181-.182-.048-.625-.082-1.33-.11l-.08-.071v-.498zm-13.551 0l.082-.071a67.07 67.07 0 0 0 2.845.082c.753 0 1.77-.024 3.049-.072.474-.013.815-.02 1.03-.02 1.685 0 2.827.307 3.428.92.596.615.896 1.338.896 2.18 0 .56-.146 1.109-.44 1.648-.293.539-.723 1-1.296 1.385-.572.382-1.363.672-2.37.863.188.259.525.709 1.01 1.35l1.419 1.877c.459.62.95 1.276 1.48 1.964.525.688.866 1.08 1.02 1.17.15.089.283.143.392.164.112.02.286.03.525.03l.082.079v.47l-.092.093a9.104 9.104 0 0 0-1.14-.062c-.47 0-.988.02-1.548.062-.461-.563-1.183-1.531-2.17-2.91a57.502 57.502 0 0 0-3.515-4.448l.098-.307c.348.017.618.028.812.028 1.153 0 2.054-.277 2.709-.83.65-.552.978-1.32.978-2.298 0-.88-.293-1.542-.88-1.992-.586-.45-1.377-.675-2.376-.675-.701 0-1.362.095-1.98.29-.102.146-.15 1.395-.15 3.748v4.625l.01 1.948c.008.753.025 1.242.059 1.46.034.22.082.368.146.44.062.074.185.137.366.184.177.05.62.088 1.327.116l.08.058v.5l-.08.079c-.035 0-.617-.016-1.757-.057a40.006 40.006 0 0 0-1.112-.021c-.204 0-1.157.028-2.855.078l-.082-.078v-.501l.082-.058c.617-.028 1.03-.062 1.238-.1.205-.04.344-.091.413-.156.072-.062.129-.197.17-.402.044-.208.069-.67.076-1.382l.009-2.108v-4.625l-.02-1.951c-.007-.757-.023-1.248-.055-1.466-.03-.222-.075-.37-.14-.44-.061-.075-.183-.133-.364-.181-.181-.048-.621-.082-1.327-.11l-.082-.071v-.498zm-12.262 13.04c.679.133 1.463.202 2.347.202 1.552 0 2.793-.26 3.725-.782.927-.518 1.623-1.29 2.084-2.31.457-1.015.688-2.164.688-3.443 0-1.887-.504-3.35-1.511-4.39-1.005-1.037-2.588-1.56-4.754-1.56-.894 0-1.753.07-2.58.203a75.492 75.492 0 0 0-.081 3.697v3.138l.02 2.936c0 .573.02 1.345.062 2.31zm-3.697-13.04l.078-.071c1.154.055 1.942.082 2.36.082l4.677-.102c1.333 0 2.425.126 3.278.375a5.675 5.675 0 0 1 2.27 1.3 6.202 6.202 0 0 1 1.513 2.148c.34.816.515 1.689.515 2.613a7.89 7.89 0 0 1-.471 2.668 7.759 7.759 0 0 1-1.334 2.364 7.337 7.337 0 0 1-1.968 1.684 7.139 7.139 0 0 1-2.214.853c-.74.143-1.497.214-2.267.214-.523 0-1.501-.016-2.941-.057-.47-.014-.785-.021-.938-.021-.46 0-1.017.028-1.668.078l-.081-.078v-.331l.08-.098c.393-.202.619-.325.673-.375.058-.048.106-.631.14-1.75a84.88 84.88 0 0 0 .058-2.552v-3.666l-.01-2.27c0-.493-.007-.896-.02-1.203a3.58 3.58 0 0 0-.073-.665.793.793 0 0 0-.112-.28.503.503 0 0 0-.212-.136 2.327 2.327 0 0 0-.494-.096l-.761-.057-.078-.072v-.498zM84.269 31.207l-.09-.092v-.46l.09-.08c.409-.006.733-.03.975-.071.243-.038.4-.106.47-.198.069-.092.117-.242.14-.45.025-.208.046-.672.069-1.398a59.01 59.01 0 0 0 .037-1.56v-8.072c0-.342-.064-.594-.187-.758a.801.801 0 0 0-.505-.307c-.211-.044-.576-.068-1.088-.075l-.078-.081v-.468l.078-.092c.92.035 1.52.05 1.808.05.675 0 1.228-.015 1.66-.05l3.186 4.138 4.687 5.876a37.04 37.04 0 0 0 1.729 2.027v-7.733c0-.242-.01-.75-.034-1.535-.023-.781-.051-1.28-.085-1.487-.034-.211-.092-.351-.174-.427-.086-.071-.242-.13-.47-.163a6.828 6.828 0 0 0-.935-.065l-.08-.082v-.457l.08-.092c.539.035 1.31.05 2.309.05.91 0 1.576-.015 1.989-.05l.088.092v.457l-.078.082a6.61 6.61 0 0 0-1.02.075c-.24.04-.39.113-.45.215-.062.099-.103.246-.126.44-.022.19-.045.652-.068 1.378a49.508 49.508 0 0 0-.035 1.569v4.745l.01 2.748c.01.9.025 1.8.038 2.708-.331-.112-.907-.252-1.73-.42l-.71-.838-2.127-2.6-6.775-8.461v7.664c0 .307.014.853.035 1.637.024.788.05 1.262.086 1.429.034.167.078.284.128.345.055.065.17.122.345.177.178.052.542.082 1.095.089l.082.079v.47l-.082.082c-.344-.048-.903-.072-1.678-.072-.992 0-1.862.024-2.61.072zm-11.58-5.597h5.055l-2.507-6.027-2.548 6.027zm-4.557 5.603l-.09-.078v-.518l.09-.082c.484-.007.798-.031.938-.075a.778.778 0 0 0 .375-.26c.109-.13.33-.555.666-1.272l1.05-2.278 2.719-6.156c.51-1.208 1.019-2.412 1.527-3.62h.648l4.267 10.035.57 1.338c.167.38.358.794.576 1.24.215.444.366.71.447.789a.868.868 0 0 0 .31.184c.123.044.4.068.826.075l.078.082v.518l-.078.078a24.067 24.067 0 0 0-1.91-.088c-1.105.034-2.21.065-3.315.088l-.082-.078v-.518l.082-.082c.746-.014 1.21-.044 1.398-.096.188-.048.28-.163.28-.344 0-.147-.048-.338-.14-.58l-1.228-3.046h-5.788l-1.09 2.558c-.193.46-.288.795-.288 1.01 0 .167.088.29.269.369.18.08.635.122 1.36.129l.09.082v.518l-.082.078c-.86-.05-1.61-.078-2.258-.078-.733 0-1.47.028-2.217.078zM138.083 42.269c1.437.047 2.354.069 2.746.069.538 0 1.14-.013 1.806-.043.71-.023 1.145-.035 1.31-.035.799 0 1.459.084 1.982.248.523.167.956.47 1.298.908.34.439.513.97.513 1.593a3.28 3.28 0 0 1-.36 1.489c-.241.48-.574.886-1.001 1.225-.43.336-.861.575-1.303.72-.438.147-.894.22-1.367.22-.353 0-.748-.04-1.184-.12l-.142-.522.075-.085c.427.097.777.146 1.044.146.747 0 1.35-.25 1.802-.742.453-.494.68-1.125.68-1.895 0-.775-.236-1.395-.707-1.86-.47-.461-1.182-.691-2.134-.691-.518 0-1.09.097-1.713.292-.05.438-.075 1.499-.075 3.185v3.96L141.36 52c.006.646.024 1.064.053 1.25.025.19.066.317.122.378.056.064.158.117.313.158.155.044.535.076 1.139.099l.068.049v.43l-.068.067a184.164 184.164 0 0 0-2.457-.067c-.195 0-1.011.023-2.448.067l-.07-.067v-.43l.07-.05c.532-.022.886-.051 1.06-.084.179-.035.295-.08.357-.134.059-.053.108-.17.146-.345.036-.178.059-.572.06-1.183l.01-1.805V46.37l-.014-1.671c-.006-.65-.023-1.07-.05-1.257-.023-.19-.064-.316-.12-.376-.053-.066-.158-.114-.31-.155-.155-.041-.534-.071-1.14-.094l-.07-.062v-.426l.07-.061zm-13.881.06l.067-.06c1.417.047 2.232.069 2.448.069.196 0 1.013-.022 2.457-.07l.07.062v.426l-.07.062c-.395.012-.698.029-.911.05-.214.023-.368.067-.468.129-.097.063-.161.209-.193.44a7.87 7.87 0 0 0-.047.964l-.017 1.97v2.719c0 .897.02 1.554.058 1.975.035.418.117.77.24 1.06.122.287.309.535.558.746.25.207.61.377 1.08.507.467.132.997.197 1.592.197.625 0 1.213-.085 1.759-.261.544-.172.958-.426 1.244-.756.285-.33.47-.766.562-1.307.088-.54.132-1.288.132-2.246V46.37c0-.448-.007-1.058-.021-1.838-.015-.778-.05-1.227-.102-1.344a.55.55 0 0 0-.301-.266c-.147-.058-.55-.093-1.21-.105l-.07-.07v-.401l.07-.078c.845.047 1.519.069 2.027.069.433 0 1.108-.022 2.019-.07l.079.07v.41l-.08.07c-.533.012-.884.032-1.048.064-.16.033-.274.079-.342.14a.601.601 0 0 0-.145.293c-.03.13-.053.508-.065 1.127l-.023 1.929v2.599c0 1.04-.041 1.859-.12 2.457-.081.599-.26 1.093-.535 1.476a3.992 3.992 0 0 1-.984.97c-.38.256-.868.459-1.461.598a8.128 8.128 0 0 1-1.848.207c-.798 0-1.505-.087-2.12-.263-.612-.177-1.094-.412-1.448-.704-.353-.29-.607-.595-.763-.92a3.487 3.487 0 0 1-.3-1.136c-.044-.438-.067-1.104-.067-1.998V46.37l-.018-1.671c-.006-.65-.02-1.07-.047-1.257-.026-.19-.067-.316-.12-.376-.055-.066-.158-.114-.312-.155-.155-.041-.535-.071-1.14-.094l-.066-.062v-.426zm-11.847 5.572c0 .695.115 1.446.339 2.247.225.803.56 1.489 1.008 2.062.45.573.967.999 1.55 1.28.586.28 1.252.42 2 .42.885 0 1.67-.204 2.36-.607.693-.406 1.215-1.035 1.575-1.888.362-.852.54-1.811.54-2.872 0-1.153-.205-2.193-.616-3.125-.412-.93-.997-1.604-1.757-2.027a5.097 5.097 0 0 0-2.523-.635c-1.385 0-2.477.436-3.278 1.303-.797.868-1.198 2.148-1.198 3.842zm-1.78.563c0-.855.124-1.653.369-2.394.245-.742.663-1.43 1.253-2.057a6.062 6.062 0 0 1 2.136-1.464c.833-.347 1.773-.52 2.825-.52 1.946 0 3.494.529 4.645 1.59 1.154 1.057 1.729 2.503 1.729 4.335 0 1.288-.28 2.448-.846 3.473a5.923 5.923 0 0 1-2.425 2.396c-1.055.572-2.24.855-3.55.855-.93 0-1.784-.154-2.567-.464a5.256 5.256 0 0 1-1.998-1.39 5.658 5.658 0 0 1-1.2-2.142c-.247-.81-.37-1.548-.37-2.218zm-11.76-6.134l.07-.061c1.043.047 1.855.069 2.436.069.647 0 1.517-.02 2.613-.06.405-.012.698-.018.88-.018 1.445 0 2.423.263 2.938.788.51.527.768 1.146.768 1.867 0 .48-.125.95-.377 1.412-.251.46-.62.855-1.111 1.185-.49.327-1.168.576-2.03.739.16.222.45.609.865 1.158l1.215 1.606c.395.53.815 1.093 1.269 1.683.449.59.742.926.873 1.002.129.076.242.123.336.14.096.018.246.027.45.027l.07.066v.403l-.08.079a7.836 7.836 0 0 0-.975-.052c-.403 0-.847.017-1.326.052-.394-.482-1.013-1.311-1.858-2.491a49.287 49.287 0 0 0-3.012-3.81l.085-.262c.298.014.528.022.695.022.988 0 1.758-.236 2.32-.71.557-.472.838-1.13.838-1.968 0-.754-.251-1.321-.754-1.706-.502-.386-1.18-.578-2.036-.578-.6 0-1.165.08-1.694.248-.088.126-.13 1.194-.13 3.21v3.962l.01 1.667c.006.646.02 1.064.05 1.25.029.19.07.317.125.378.053.064.158.117.312.158.153.044.533.076 1.137.099l.07.049v.43l-.07.067c-.03 0-.528-.015-1.504-.05a37.64 37.64 0 0 0-.953-.017c-.175 0-.99.023-2.444.067l-.071-.067v-.43l.07-.05c.529-.022.883-.051 1.06-.084.176-.035.295-.08.354-.134.06-.053.11-.17.146-.345.038-.178.059-.572.065-1.183l.009-1.805V46.37L100.5 44.7c-.006-.65-.021-1.07-.047-1.257-.026-.19-.064-.316-.12-.376-.053-.066-.157-.114-.313-.155-.154-.041-.531-.071-1.135-.094l-.071-.062v-.426zm-.915 7.368v.257l-.035.102-.42.248c-.102.065-.161.11-.178.147-.018.035-.038.204-.065.507-.026.308-.037.678-.037 1.12 0 .497.028 1.034.093 1.615l-.053.088a13.37 13.37 0 0 1-4.817.896c-1.268 0-2.41-.24-3.433-.718a5.703 5.703 0 0 1-2.43-2.13c-.6-.941-.897-2.06-.897-3.357 0-1.972.672-3.543 2.02-4.706 1.35-1.162 3.113-1.747 5.289-1.747 1.595 0 3.033.272 4.303.815l.062.094c-.106.383-.225 1.183-.36 2.404l-.07.062h-.393l-.068-.07-.044-.907c-.017-.297-.035-.47-.055-.522-.021-.053-.083-.12-.184-.201-.103-.082-.365-.214-.792-.395a6.418 6.418 0 0 0-1.28-.391 7.034 7.034 0 0 0-1.375-.126c-1.046 0-1.97.216-2.776.65a4.198 4.198 0 0 0-1.817 1.898c-.41.829-.613 1.75-.613 2.766 0 1.05.22 2.027.66 2.933a5.007 5.007 0 0 0 1.889 2.118c.825.508 1.78.763 2.87.763a7.5 7.5 0 0 0 1.449-.144c.493-.093.899-.225 1.22-.397.05-.181.077-.55.077-1.104v-.95c0-.45-.027-.731-.085-.844-.06-.111-.2-.19-.424-.233-.225-.047-.713-.076-1.46-.085l-.076-.08v-.376l.076-.076.522.017a69.46 69.46 0 0 0 2.192.04c.324 0 .802-.014 1.427-.05l.088.069z"/>
        <mask id="b" fill="#fff">
            <use xlink:href="#a"/>
        </mask>
        <path fill="#FFFFFE" d="M68.494 36.916h94.898v-.948H68.494zM19.296 54.57L17.1 54.4c-1.73-.135.019-3.741.553-4.97l.083-.191c-1.984.47-3.723.684-5.492.728-1.447 3.417-2.117 3.918-4.594 4.433l-1.327.276c-.466.285-.175.825.159 1.06 2.732-.112 4.014-.275 7.013-.275 3.199 0 3.735.482 5.667.54.534-.238.6-1.147.134-1.43m22.336-6.47a327.76 327.76 0 0 0-2.724-6.548c-1.448.377-3.014.895-4.75 1.567.325.829.67 1.707 1.017 2.57a46.307 46.307 0 0 1-3.441-2.128 73.11 73.11 0 0 1 2.239-.92v.004c1.987-.773 3.859-1.39 5.62-1.805v.008c3.147-.742 5.959-.87 8.484-.168 6.488 1.804 4.05 8.283-4.302 7.684a20.632 20.632 0 0 1-2.143-.263m-19.466-5.594c-.697.464-1.41.91-2.135 1.334l1.249-2.968c.686.259 1.377.54 2.07.85-.385.254-.78.515-1.184.784m23.136 6.829c11.693-.512 12.87-10.425 5.657-14.215-3.056-1.605-6.844-2.076-10.844-1.296a22.79 22.79 0 0 0-1.412.327c-.401.106-.803.22-1.207.353a44.914 44.914 0 0 0-6.253 2.586c-.18.09-.36.18-.542.275-.224.116-.452.237-.68.359-.184.098-.368.196-.556.298-.228.125-.461.256-.694.387-.737.414-1.495.855-2.298 1.344a48.753 48.753 0 0 0-3.69-2.517l3.777-9.31c.253-.624.513-1.288.76-1.89.246.602.506 1.266.76 1.89l3.44 8.479a44.46 44.46 0 0 1 4.364-1.878c-2.367-5.496-4.692-11.015-6.625-16.6-.503-1.451-3.04-1.032-3.142 0-1.845 5.33-4.244 10.6-6.69 15.847l-.288.617-.367.789h-.001a781.264 781.264 0 0 0-2.22 4.782 203.398 203.398 0 0 0-2.93 6.643c-1.637.439-3.33.68-5.082.645-8.403-.173-6.666-5.382-2.443-7.168 2.769-1.171 6.275-1.382 10.117-.656.643-1.395 1.29-2.786 1.932-4.158l.129-.276c-2.704-1.033-5.48-1.493-8.532-1.2-7.038.678-9.522 4.623-9.728 7.538-.29 4.106 3.842 7.89 10.56 8.099.534.017 1.056.016 1.575.004 2.149-.05 4.23-.347 6.65-.998a43.053 43.053 0 0 0 1.157-.33c2.505-.751 5.407-1.857 9.107-3.41 2.555 1.335 4.84 2.369 6.979 3.123.419 1.01.798 1.89 1.087 2.494.4.842 2.14 3.95.41 4.086l-2.195.17c-.466.284-.4 1.193.134 1.43 1.932-.057 2.467-.54 5.667-.54 3 0 4.28.164 7.014.277.333-.236.624-.776.157-1.061l-1.327-.276c-2.643-.55-3.225-1.074-4.896-5.157 1.07.109 2.132.14 3.209.094M39.19 4.862a.85.85 0 0 1-.851-.844c0-.48.402-.848.88-.817a.85.85 0 0 1 .794.87.821.821 0 0 1-.823.79m-2.911 3.046c-.553.484-1.101.625-1.807.42-1.636-.471-4.021-.77-6.676-.77-2.655 0-5.04.299-6.676.77-.706.205-1.255.064-1.807-.42-.74-.65-1.506-1.784-1.794-2.52 0 0 1.83 1.42 2.705 1.948.905.543 1.07.533.91-.323-.095-.51-.478-1.708-.478-1.708s1.072.986 1.565 1.416c.769.67.994.61.966-.128-.035-.844-.291-2.301-.291-2.301S24.2 6.26 24.65 6.777c.39.447.623.398.682-.098.103-.863.086-2.442.086-2.442s.678 1.7 1.022 2.229c.307.473.558.434.81-.037.296-.547.546-1.523.546-1.523s.25.976.545 1.523c.253.47.504.51.81.037.345-.528.976-2.113.976-2.113s.03 1.463.134 2.326c.059.496.29.545.68.098.45-.517 1.755-2.486 1.755-2.486s-.257 1.457-.29 2.3c-.03.74.196.799.964.129.495-.43 1.5-1.346 1.5-1.346s-.317 1.128-.411 1.638c-.161.856.004.866.909.323.876-.527 2.705-1.947 2.705-1.947-.288.735-1.054 1.87-1.794 2.519m-1.441 2.055c-1.397-.494-4.097-1.06-7.042-.976-2.944-.084-6.062.482-7.458.976-.921.325-1.082.09-1.143-.517 1.528-.785 5.438-1.377 8.6-1.314 3.165-.063 6.657.529 8.186 1.314-.062.607-.222.842-1.143.517m-6.626 1.227c.045-.188.126-.417.25-.541a.57.57 0 0 1 .439-.148c.007.129-.024.316-.148.439-.124.124-.332.212-.541.25m-.79-.998c0-.242.18-.441.374-.574.174.119.373.332.373.574 0 .242-.154.53-.373.774-.182-.23-.373-.532-.373-.774m-.726.309a.573.573 0 0 1 .44.148c.124.124.204.353.25.54-.21-.037-.418-.125-.541-.25-.124-.122-.155-.31-.15-.438m8.663 2.805c0 .892-3.386 1.534-7.563 1.534-4.176 0-7.563-.642-7.563-1.534s3.387-1.615 7.563-1.615c4.177 0 7.563.723 7.563 1.615M18.903 2.047a.86.86 0 0 1 .896.803.798.798 0 0 1-.776.856.865.865 0 0 1-.876-.79.797.797 0 0 1 .756-.87m1.525 4.656c-.923-.488-1.424-.858-1.812-1.327-.185-.224-.274-.462-.244-.653a.383.383 0 0 1 .182-.273.732.732 0 0 1 .388-.118c.227 0 .426.117.577.339.32.47.589.984.909 2.032m.413-2.947a.552.552 0 0 1 .313-.352.615.615 0 0 1 .257-.055c.303 0 .572.203.704.53.219.543.37 1.112.446 2.207-.886-.742-1.274-1.21-1.598-1.708-.136-.21-.18-.43-.122-.622m.6-2.538c.387-.222.88-.07 1.11.327.224.39.118.887-.243 1.125-.373.244-.883.126-1.134-.278-.255-.412-.133-.944.267-1.174M23.523 3a.558.558 0 0 1 .377-.278.672.672 0 0 1 .142-.016c.293 0 .628.2.715.65.116.588.155 1.194-.002 2.336C24 4.695 23.714 4.14 23.51 3.589c-.08-.216-.076-.425.013-.59M24.799.61a.84.84 0 0 1 .814.859.806.806 0 0 1-.801.802.841.841 0 0 1-.83-.817.805.805 0 0 1 .817-.844m1.337 2.105a.619.619 0 0 1 .47-.224h.002c.212 0 .39.075.524.21a.812.812 0 0 1 .223.588c-.007.598-.093 1.2-.483 2.294-.573-1.08-.758-1.675-.864-2.268-.041-.234.004-.446.128-.6m1.66-2.261c.455 0 .822.372.822.832 0 .46-.367.832-.822.832a.826.826 0 0 1-.822-.832c0-.46.367-.832.822-.832m1.167 2.037a.63.63 0 0 1 .493.224c.124.154.17.366.128.6-.106.594-.291 1.19-.864 2.268-.39-1.093-.475-1.695-.482-2.294a.807.807 0 0 1 .222-.587.702.702 0 0 1 .503-.211m1.83-1.881a.805.805 0 0 1 .817.844.841.841 0 0 1-.83.817.806.806 0 0 1-.801-.802.841.841 0 0 1 .815-.86M32.069 3c.089.164.094.373.014.589-.205.55-.49 1.104-1.245 2.103-.158-1.142-.12-1.748-.004-2.335.087-.45.423-.651.716-.651.048 0 .096.006.142.016.166.037.3.136.377.278m.972-1.456c.229-.397.723-.55 1.11-.327.4.23.522.762.267 1.174-.251.404-.761.522-1.133.278-.362-.238-.468-.735-.244-1.125m1.71 2.21c.057.193.014.414-.122.623-.324.499-.711.965-1.597 1.708.074-1.095.226-1.663.445-2.207.132-.327.402-.53.704-.53.089 0 .176.018.257.055a.557.557 0 0 1 .314.352m1.32.915c.152-.222.35-.34.578-.34.132 0 .266.042.389.119a.385.385 0 0 1 .18.273c.032.19-.057.429-.243.653-.388.469-.89.839-1.812 1.327.32-1.048.588-1.562.908-2.032m.617-2.623a.797.797 0 0 1 .756.869.865.865 0 0 1-.876.79.799.799 0 0 1-.776-.856.86.86 0 0 1 .896-.803M16.403 4.862a.821.821 0 0 1-.824-.79.851.851 0 0 1 .794-.871.819.819 0 0 1 .88.817.85.85 0 0 1-.85.844m22.759-2.117c-.434 0-.815.217-1.05.545-.2.279-.314.248-.235-.08a1.296 1.296 0 0 0-1.259-1.598c-.503 0-.94.29-1.15.71-.256.513-.547.432-.428-.116A1.297 1.297 0 0 0 33.77.667c-.563 0-1.05.359-1.22.863-.208.619-.445.516-.441-.083A1.29 1.29 0 0 0 30.815.153c-.662 0-1.211.5-1.286 1.142-.072.614-.418.627-.44 0C29.068.582 28.51 0 27.797 0S26.525.582 26.5 1.295c-.02.627-.366.614-.438 0A1.296 1.296 0 0 0 24.777.153c-.714 0-1.3.58-1.294 1.294.005.599-.233.702-.441.083a1.286 1.286 0 0 0-1.22-.863 1.297 1.297 0 0 0-1.27 1.539c.119.548-.172.629-.428.116a1.287 1.287 0 0 0-1.15-.71 1.296 1.296 0 0 0-1.258 1.599c.078.327-.037.358-.236.079a1.29 1.29 0 0 0-2.344.749c0 .618.507.975 1.008 1.388 1.375 1.13 2.008 1.984 2.926 3.672.194.357.119.61-.04.855-.176.27-.105.825.6.833.63.008 1.228.098 1.265.325.029.189-.714.407-.714.407.184.283.22.53.133.8-.096.296-.35.559-.641.732-.628.372-.182.803.85 1.196 1.452.553 4.129 1.012 7.273 1.012s5.822-.46 7.273-1.012c1.032-.393 1.479-.824.85-1.196-.292-.173-.545-.436-.641-.731-.087-.271-.051-.518.133-.801 0 0-.744-.218-.713-.407.036-.227.633-.317 1.264-.325.705-.008.776-.562.6-.833-.16-.245-.234-.498-.04-.855.919-1.688 1.55-2.541 2.926-3.672.5-.413 1.009-.77 1.009-1.388 0-.714-.581-1.294-1.295-1.294" mask="url(#b)"/>
        <path fill="#FFFFFE" d="M12.336 24.245c0 .472.034.9.105 1.288.071.386.19.666.353.835.166.17.362.255.591.255a.743.743 0 0 0 .553-.227c.147-.151.255-.411.323-.777.068-.368.102-.821.102-1.362 0-.85-.08-1.476-.24-1.884-.162-.406-.429-.61-.802-.61-.325 0-.57.158-.736.473-.167.315-.249.984-.249 2.009m-.64.216c0-.442.021-.84.066-1.193.046-.353.143-.668.296-.944.152-.278.344-.484.572-.621.23-.14.492-.208.784-.208.333 0 .625.085.877.257.251.17.433.434.543.789.11.355.166.836.166 1.448 0 .992-.152 1.722-.456 2.19-.304.47-.725.705-1.263.705-.27 0-.509-.06-.716-.176a1.374 1.374 0 0 1-.51-.505 2.292 2.292 0 0 1-.279-.781 5.454 5.454 0 0 1-.08-.961M5.92 26.77l-.044-.036v-.172l1.246-1.321c.513-.543.845-.964.997-1.261.151-.297.227-.575.227-.833 0-.304-.092-.555-.276-.756-.183-.201-.432-.301-.744-.301-.2 0-.376.03-.525.093-.148.062-.248.13-.299.208-.05.077-.125.293-.222.648l-.032.029h-.154l-.037-.033c.057-.335.096-.667.12-.993.233-.23.451-.375.652-.44.202-.061.414-.092.635-.092.264 0 .515.049.755.148.242.099.434.259.58.482.148.222.22.479.22.772 0 .218-.04.437-.128.656-.085.22-.21.432-.376.637-.165.204-.39.45-.675.735l-1.162 1.184H8.15c.451 0 .827-.016 1.127-.05l.027.03a1.833 1.833 0 0 0-.024.332c0 .124.008.222.024.294l-.027.04a51.545 51.545 0 0 0-1.555-.036c-.24 0-.565.002-.97.009-.408.006-.685.015-.83.027M47.583 24.378c0 .471.035.9.105 1.288.072.386.19.665.353.835a.802.802 0 0 0 .591.255.74.74 0 0 0 .553-.228c.147-.15.255-.41.324-.777.067-.367.101-.82.101-1.362 0-.848-.08-1.475-.24-1.883-.162-.407-.429-.61-.8-.61-.326 0-.57.158-.738.472-.166.316-.249.985-.249 2.01m-.64.216c0-.442.022-.84.066-1.193a2.66 2.66 0 0 1 .296-.945c.153-.277.344-.484.573-.62.23-.139.491-.208.784-.208.332 0 .624.085.876.256.252.172.433.435.544.79.11.355.165.836.165 1.447 0 .992-.152 1.722-.456 2.192-.304.47-.724.703-1.263.703a1.43 1.43 0 0 1-.716-.175 1.396 1.396 0 0 1-.51-.505 2.298 2.298 0 0 1-.279-.782 5.533 5.533 0 0 1-.08-.96m-5.076-.216c0 .471.034.9.106 1.288.07.386.19.665.353.835a.797.797 0 0 0 .59.255.742.742 0 0 0 .553-.228c.147-.15.255-.41.323-.777.068-.367.102-.82.102-1.362 0-.848-.08-1.475-.24-1.883-.162-.407-.429-.61-.8-.61-.327 0-.57.158-.738.472-.166.316-.249.985-.249 2.01m-.64.216c0-.442.022-.84.066-1.193a2.66 2.66 0 0 1 .296-.945c.152-.277.344-.484.573-.62.23-.139.491-.208.783-.208.333 0 .625.085.877.256.251.172.433.435.544.79.11.355.165.836.165 1.447 0 .992-.152 1.722-.456 2.192-.304.47-.724.703-1.263.703a1.43 1.43 0 0 1-.716-.175 1.389 1.389 0 0 1-.51-.505 2.298 2.298 0 0 1-.279-.782 5.533 5.533 0 0 1-.08-.96" mask="url(#b)"/>
    </g>
</svg>
