<svg xmlns="http://www.w3.org/2000/svg" xmlns:xlink="http://www.w3.org/1999/xlink" width="57" height="20" viewBox="0 0 57 20">
    <defs>
        <path id="a" d="M.559.505h35.779v9.833H.558z"/>
    </defs>
    <g fill="none" fill-rule="evenodd">
        <path fill="#FFF" d="M0 19.536h19.487V0H0v19.536zM13.505 5.61l1.657-.004v1.505h-1.657v-1.5zm0 2.243h1.657v6.232h-1.657V7.854zm-2.143 0h1.695l-1.793 6.232H9.587l-.974-4.55-.994 4.55H5.924L4.17 7.854h1.754l.974 4.474.896-4.474h1.638l.955 4.493.975-4.493z"/>
        <g transform="translate(20.663 4.536)">
            <mask id="b" fill="#fff">
                <use xlink:href="#a"/>
            </mask>
            <path fill="#FFF" d="M34.817 7.265V9.51a.694.694 0 0 0 .156.507c.258.205.592.29.916.235l.449-.02v-.704h-.196a.56.56 0 0 1-.35-.058.342.342 0 0 1-.059-.274V7.264h.585V6.6h-.585V5.586h-.938V6.6h-.505v.684l.527-.018zm-2.3-.782a1.107 1.107 0 0 0-.74.218 1.771 1.771 0 0 0-.35.41v-.529h-.915v3.633h.955V8.22a1.283 1.283 0 0 1 .097-.547.64.64 0 0 1 .662-.41.525.525 0 0 1 .527.274c.055.143.082.295.077.449v2.208h.975V7.753a1.222 1.222 0 0 0-.35-.978 1.378 1.378 0 0 0-.936-.293h-.001zm-4.286-.02a1.735 1.735 0 0 0-1.306.507 1.981 1.981 0 0 0-.505 1.447 1.812 1.812 0 0 0 .546 1.465c.364.294.818.454 1.286.45a1.707 1.707 0 0 0 1.363-.528c.184-.178.307-.411.351-.664h-.974a.705.705 0 0 1-.721.41 1.002 1.002 0 0 1-.527-.137.86.86 0 0 1-.37-.762h2.65a4.379 4.379 0 0 0-.039-.723 1.829 1.829 0 0 0-.292-.762 1.54 1.54 0 0 0-.623-.547 2.38 2.38 0 0 0-.837-.156h-.002zm0 .783a.83.83 0 0 1 .565.195c.157.147.248.35.253.566h-1.637c.023-.21.112-.41.254-.566.16-.132.36-.201.567-.196h-.002zm-3.508-.763a1.221 1.221 0 0 0-.643.156 1.358 1.358 0 0 0-.468.47.981.981 0 0 0-.311-.43 1.309 1.309 0 0 0-1.383.038 1.34 1.34 0 0 0-.332.411V6.6h-.939v3.634h.955V8.006a1.127 1.127 0 0 1 .08-.449.52.52 0 0 1 .544-.254.455.455 0 0 1 .468.254c.057.149.077.31.058.469v2.17h.955v-2.17a.954.954 0 0 1 .078-.41.551.551 0 0 1 .545-.333.474.474 0 0 1 .468.255c.05.103.07.218.06.332v2.325h.973V7.908a2.7 2.7 0 0 0-.039-.546 1.028 1.028 0 0 0-.216-.47 1.208 1.208 0 0 0-.429-.331 1.405 1.405 0 0 0-.43-.079h.006zm-6.196.782V9.51a.684.684 0 0 0 .155.507c.258.205.592.29.916.235l.449-.02v-.704h-.196a.557.557 0 0 1-.35-.058.34.34 0 0 1-.059-.274V7.283h.585V6.6h-.585V5.586h-.938V6.6H18v.684l.528-.018zm-4.151 1.777c-.006.351.144.688.409.919.365.269.813.4 1.267.371.444.036.886-.09 1.247-.351.256-.221.405-.542.408-.88a.974.974 0 0 0-.272-.684 1.755 1.755 0 0 0-.858-.41 9.546 9.546 0 0 1-.993-.254.238.238 0 0 1-.137-.235.299.299 0 0 1 .137-.234.713.713 0 0 1 .448-.097.658.658 0 0 1 .526.195.528.528 0 0 1 .098.293h.955a1.184 1.184 0 0 0-.488-.94 2 2 0 0 0-1.11-.274 1.54 1.54 0 0 0-1.111.371c-.251.214-.394.53-.39.86a.844.844 0 0 0 .253.664c.257.2.558.334.878.39.34.062.673.16.993.293a.286.286 0 0 1 .098.39l-.117.118a1.26 1.26 0 0 1-1.111-.117.78.78 0 0 1-.136-.352l-.994-.036zM12.31 6.463a1.736 1.736 0 0 0-1.306.507 1.975 1.975 0 0 0-.505 1.447 1.812 1.812 0 0 0 .546 1.465c.364.294.819.454 1.286.45a1.708 1.708 0 0 0 1.364-.528c.184-.178.306-.411.35-.664h-.974a.705.705 0 0 1-.72.41 1 1 0 0 1-.527-.137.864.864 0 0 1-.37-.762h2.65a4.38 4.38 0 0 0-.04-.723 1.82 1.82 0 0 0-.292-.762 1.54 1.54 0 0 0-.623-.547 2.387 2.387 0 0 0-.838-.156zm0 .783a.83.83 0 0 1 .565.195c.157.147.248.35.254.566h-1.637c.022-.21.11-.41.253-.566a.829.829 0 0 1 .566-.196zM8.47 9.238L7.712 6.56H6.64l1.305 3.634h.994l1.306-3.634h-1.01l-.762 2.677h-.002zM4.848 6.483a1.108 1.108 0 0 0-.741.218 1.771 1.771 0 0 0-.35.41v-.529H2.84v3.633h.954V8.22a1.295 1.295 0 0 1 .098-.547.64.64 0 0 1 .662-.41.525.525 0 0 1 .527.274c.055.143.081.295.077.449v2.208h.975V7.753a1.22 1.22 0 0 0-.35-.978c-.267-.21-.601-.314-.939-.293h.003zM.949 10.196h.955V6.56H.95v3.635zm23.616-8.793a1.108 1.108 0 0 0-.74.218 1.786 1.786 0 0 0-.351.41v-.528h-.916v3.633h.955V3.142a1.296 1.296 0 0 1 .098-.547.641.641 0 0 1 .661-.41.525.525 0 0 1 .527.273c.056.143.083.296.078.449v2.208h.974v-2.44a1.216 1.216 0 0 0-.35-.977 1.38 1.38 0 0 0-.933-.295h-.003zm-2.689 0a1.032 1.032 0 0 0-.701.218c-.15.144-.283.308-.39.487v-.627h-.897v3.634h.955V3.378c-.02-.221.02-.444.117-.645a.778.778 0 0 1 .76-.37h.117a.43.43 0 0 1 .156.019v-.977h-.117v-.002zm-4.248-.02a1.73 1.73 0 0 0-1.306.507 1.974 1.974 0 0 0-.505 1.447c-.049.546.152 1.085.546 1.466.363.293.818.453 1.285.449a1.711 1.711 0 0 0 1.365-.528c.183-.18.306-.411.351-.664h-.975a.707.707 0 0 1-.721.41 1.009 1.009 0 0 1-.527-.137.862.862 0 0 1-.37-.761h2.65a4.644 4.644 0 0 0-.038-.724 1.83 1.83 0 0 0-.293-.762 1.533 1.533 0 0 0-.624-.547 2.381 2.381 0 0 0-.838-.156zm0 .782a.829.829 0 0 1 .565.196c.157.147.248.35.253.566H16.81c.023-.21.11-.41.253-.566a.798.798 0 0 1 .568-.193l-.003-.003zm-3.664.02V4.43a.69.69 0 0 0 .156.507c.258.205.591.29.916.234l.448-.02V4.45h-.195a.559.559 0 0 1-.35-.058.34.34 0 0 1-.059-.274V2.204h.585v-.686h-.585V.505h-.938v1.013h-.505V2.2l.527-.016zm-4.15 1.777c-.007.352.144.688.409.919.365.269.814.4 1.266.371.445.035.887-.09 1.248-.352.256-.22.405-.54.41-.88a.981.981 0 0 0-.274-.683 1.758 1.758 0 0 0-.858-.41 9.282 9.282 0 0 1-.99-.252.236.236 0 0 1-.137-.234.3.3 0 0 1 .136-.235.721.721 0 0 1 .448-.098.66.66 0 0 1 .527.196.528.528 0 0 1 .098.293h.954a1.189 1.189 0 0 0-.486-.94 2.008 2.008 0 0 0-1.112-.274 1.54 1.54 0 0 0-1.11.371c-.25.214-.393.53-.39.86a.774.774 0 0 0 .253.644c.256.2.557.334.877.391.34.062.674.16.994.293.134.08.178.256.098.39l-.118.118a1.26 1.26 0 0 1-1.11-.117.786.786 0 0 1-.137-.352h-.993v-.02l-.003.001zM7.767 1.383a1.731 1.731 0 0 0-1.305.507 1.974 1.974 0 0 0-.505 1.447c-.05.546.152 1.085.545 1.466.365.293.819.453 1.286.449a1.711 1.711 0 0 0 1.364-.528c.184-.18.306-.411.352-.664h-.975a.707.707 0 0 1-.722.41 1.005 1.005 0 0 1-.526-.137.86.86 0 0 1-.37-.761h2.65a4.558 4.558 0 0 0-.039-.724 1.83 1.83 0 0 0-.293-.762 1.535 1.535 0 0 0-.623-.547 2.381 2.381 0 0 0-.838-.156zm0 .782a.83.83 0 0 1 .565.196.8.8 0 0 1 .254.566H6.95c.023-.21.112-.41.253-.566a.796.796 0 0 1 .568-.193l-.003-.003zm-5.63 1.934L1.57 1.481H.56L1.57 5.115h.993l.585-2.657.565 2.657h.975L5.74 1.48h-.994L4.181 4.1l-.545-2.618H2.68L2.138 4.1z" mask="url(#b)"/>
        </g>
    </g>
</svg>
